<svg xmlns="http://www.w3.org/2000/svg" width="1672" height="941" viewBox="0 0 1672 941" role="img" aria-label="有料版で使える機能が宝箱から出てくるイラスト">
  <defs>
    <linearGradient id="bg2" x1="0" y1="0" x2="1" y2="0">
      <stop offset="0" stop-color="#eef1f0"/>
      <stop offset="0.46" stop-color="#f7fbfa"/>
      <stop offset="1" stop-color="#d8f5f2"/>
    </linearGradient>
    <filter id="shadow2" x="-20%" y="-20%" width="140%" height="150%">
      <feDropShadow dx="0" dy="14" stdDeviation="16" flood-color="#263332" flood-opacity="0.13"/>
    </filter>
  </defs>
  <rect width="1672" height="941" fill="url(#bg2)"/>
  <rect x="0" y="0" width="610" height="941" fill="#d9dedc" opacity="0.48"/>
  <path d="M0 736 C220 638 381 780 612 710 C812 650 1018 520 1240 602 C1432 672 1515 562 1672 520 L1672 941 L0 941 Z" fill="#c8efec" opacity="0.72"/>
  <text x="145" y="118" font-family="Hiragino Sans, Yu Gothic, Meiryo, sans-serif" font-size="40" font-weight="900" fill="#8b9693">無料</text>
  <text x="1232" y="118" font-family="Hiragino Sans, Yu Gothic, Meiryo, sans-serif" font-size="40" font-weight="900" fill="#2d7d6f">有料で広がる機能</text>

  <g filter="url(#shadow2)">
    <g transform="translate(666 510)">
      <path d="M-190 44 L190 44 L152 222 L-152 222 Z" fill="#d99938"/>
      <path d="M-166 68 L166 68 L138 194 L-138 194 Z" fill="#f5bf58"/>
      <rect x="-176" y="-24" width="352" height="92" rx="18" fill="#b8792e"/>
      <path d="M-176 -24 C-98 -112 98 -112 176 -24 Z" fill="#f0a94b"/>
      <path d="M-132 -18 C-76 -72 76 -72 132 -18 Z" fill="#ffd36d"/>
      <rect x="-36" y="32" width="72" height="74" rx="14" fill="#fff1b8"/>
      <circle cx="0" cy="62" r="11" fill="#2d7d6f"/>
      <path d="M0 74 L0 94" stroke="#2d7d6f" stroke-width="8" stroke-linecap="round"/>
      <path d="M-70 -66 C-18 -98 34 -98 86 -66" fill="none" stroke="#2d7d6f" stroke-width="16" stroke-linecap="round"/>
    </g>
  </g>

  <g font-family="Hiragino Sans, Yu Gothic, Meiryo, sans-serif" font-weight="900" text-anchor="middle">
    <g transform="translate(822 232)">
      <circle r="72" fill="#ffffff" stroke="#2d7d6f" stroke-width="5"/>
      <text y="14" font-size="56" fill="#2d7d6f">∞</text>
      <text y="124" font-size="44" fill="#263332">使用上限</text>
    </g>
    <g transform="translate(1062 288)">
      <circle r="72" fill="#ffffff" stroke="#48b6aa" stroke-width="5"/>
      <text y="12" font-size="44" fill="#48a59b">脳</text>
      <text y="124" font-size="44" fill="#263332">メモリ</text>
    </g>
    <g transform="translate(1238 454)">
      <circle r="72" fill="#ffffff" stroke="#e5b63f" stroke-width="5"/>
      <text y="10" font-size="50" fill="#e5a928">★</text>
      <text y="124" font-size="44" fill="#263332">高精度</text>
    </g>
    <g transform="translate(1114 704)">
      <circle r="72" fill="#ffffff" stroke="#2d7d6f" stroke-width="5"/>
      <rect x="-18" y="-42" width="36" height="62" rx="18" fill="#2d7d6f"/>
      <path d="M-42 -8 C-42 34 42 34 42 -8" fill="none" stroke="#2d7d6f" stroke-width="8" stroke-linecap="round"/>
      <path d="M0 31 L0 54 M-25 54 L25 54" stroke="#2d7d6f" stroke-width="8" stroke-linecap="round"/>
      <text y="124" font-size="44" fill="#263332">音声会話</text>
    </g>
    <g transform="translate(810 760)">
      <circle r="72" fill="#ffffff" stroke="#e98b48" stroke-width="5"/>
      <path d="M-36 -28 C-56 0 -44 34 -8 42 C34 52 60 28 52 -2 C45 -28 12 -48 -18 -44 C-25 -43 -31 -38 -36 -28 Z" fill="#f3b167"/>
      <circle cx="-20" cy="-15" r="7" fill="#2d7d6f"/>
      <circle cx="5" cy="-23" r="7" fill="#48a59b"/>
      <circle cx="25" cy="-7" r="7" fill="#e5a928"/>
      <circle cx="-3" cy="18" r="9" fill="#ffffff"/>
      <text y="124" font-size="44" fill="#263332">画像生成</text>
    </g>
    <g transform="translate(512 720)">
      <circle r="72" fill="#ffffff" stroke="#6bbac0" stroke-width="5"/>
      <text y="12" font-size="48" fill="#4a9fa6">PDF</text>
      <text y="124" font-size="44" fill="#263332">ファイル解析</text>
    </g>
    <g transform="translate(374 464)">
      <circle r="72" fill="#ffffff" stroke="#5aa49d" stroke-width="5"/>
      <circle cx="-10" cy="-10" r="30" fill="none" stroke="#3d918b" stroke-width="9"/>
      <path d="M14 14 L44 44" stroke="#3d918b" stroke-width="10" stroke-linecap="round"/>
      <text y="124" font-size="44" fill="#263332">Deep Research</text>
    </g>
    <g transform="translate(540 286)">
      <circle r="72" fill="#ffffff" stroke="#c087d9" stroke-width="5"/>
      <rect x="-42" y="-28" width="58" height="52" rx="10" fill="#9c61bb"/>
      <path d="M16 -12 L48 -30 L48 26 L16 8 Z" fill="#9c61bb"/>
      <circle cx="-22" cy="-6" r="7" fill="#ffffff" opacity="0.82"/>
      <text y="124" font-size="44" fill="#263332">動画生成</text>
    </g>
  </g>

  <g stroke="#79cbc6" stroke-width="4" stroke-dasharray="8 14" opacity="0.9">
    <path d="M680 505 C720 402 770 318 822 232"/>
    <path d="M716 508 C830 406 964 344 1062 288"/>
    <path d="M760 534 C930 500 1094 470 1238 454"/>
    <path d="M752 600 C894 656 1010 692 1114 704"/>
    <path d="M660 620 C708 684 760 728 810 760"/>
    <path d="M604 606 C570 642 542 684 512 720"/>
    <path d="M554 536 C494 508 432 486 374 464"/>
    <path d="M594 500 C578 420 562 350 540 286"/>
  </g>
</svg>
